/* XPM */
static const char * janeclone_xpm[] = {
"32 32 422 2",
"  	c None",
". 	c #4F4B4C",
"+ 	c #4B4748",
"@ 	c #524E4F",
"# 	c #5B5758",
"$ 	c #585455",
"% 	c #5D595A",
"& 	c #565253",
"* 	c #4A4647",
"= 	c #4D494A",
"- 	c #4E4A4B",
"; 	c #5C5859",
"> 	c #6D696A",
", 	c #504D51",
"' 	c #534F50",
") 	c #524E51",
"! 	c #514D50",
"~ 	c #545055",
"{ 	c #514D4E",
"] 	c #423E3F",
"^ 	c #3A3637",
"/ 	c #555152",
"( 	c #595556",
"_ 	c #504C4D",
": 	c #353132",
"< 	c #716D6E",
"[ 	c #6C6869",
"} 	c #6B665F",
"| 	c #C7A719",
"1 	c #C2A31C",
"2 	c #BDA01E",
"3 	c #56524E",
"4 	c #524E50",
"5 	c #58534E",
"6 	c #99842F",
"7 	c #CCAB17",
"8 	c #DBB710",
"9 	c #DCB710",
"0 	c #CAAA17",
"a 	c #796B3A",
"b 	c #4E4B4E",
"c 	c #656162",
"d 	c #6F6B6C",
"e 	c #686465",
"f 	c #575354",
"g 	c #545051",
"h 	c #2A2627",
"i 	c #494546",
"j 	c #7A7677",
"k 	c #666264",
"l 	c #8B7A3D",
"m 	c #FFD500",
"n 	c #FFD300",
"o 	c #D5B211",
"p 	c #4A484F",
"q 	c #82733A",
"r 	c #EEC508",
"s 	c #FFD700",
"t 	c #9E8934",
"u 	c #4E4A4E",
"v 	c #6E6A6B",
"w 	c #706C6D",
"x 	c #635F60",
"y 	c #646061",
"z 	c #403C3D",
"A 	c #837F80",
"B 	c #5A5657",
"C 	c #565359",
"D 	c #C5A61A",
"E 	c #FFD400",
"F 	c #917C1F",
"G 	c #3F3C3D",
"H 	c #504C51",
"I 	c #9F882C",
"J 	c #FFD600",
"K 	c #635B48",
"L 	c #4C4849",
"M 	c #666263",
"N 	c #534F53",
"O 	c #F7CD04",
"P 	c #4F4830",
"Q 	c #484548",
"R 	c #8F7D31",
"S 	c #E3BE0A",
"T 	c #A68D18",
"U 	c #947C0B",
"V 	c #EAC304",
"W 	c #AC9429",
"X 	c #464345",
"Y 	c #474344",
"Z 	c #292526",
"` 	c #7E703B",
" .	c #E6BF07",
"..	c #38363A",
"+.	c #6B6246",
"@.	c #FED200",
"#.	c #A0881A",
"$.	c #3A3738",
"%.	c #211F24",
"&.	c #454348",
"*.	c #453F2F",
"=.	c #F2C902",
"-.	c #9D8307",
";.	c #393539",
">.	c #787475",
",.	c #7B7778",
"'.	c #4F4B4F",
").	c #B09727",
"!.	c #AD9115",
"~.	c #36343D",
"{.	c #CAAA16",
"].	c #B79A14",
"^.	c #353438",
"/.	c #58555D",
"(.	c #E4BF14",
"_.	c #A89124",
":.	c #6D6A6D",
"<.	c #484445",
"[.	c #5E5A5B",
"}.	c #343031",
"|.	c #605C5D",
"1.	c #2C2829",
"2.	c #3D393D",
"3.	c #E0BB12",
"4.	c #FFD900",
"5.	c #6A5C2C",
"6.	c #544D3E",
"7.	c #FCD101",
"8.	c #494333",
"9.	c #534F52",
"0.	c #E7C00A",
"a.	c #64582D",
"b.	c #4E4B4C",
"c.	c #363233",
"d.	c #302C2D",
"e.	c #1E1A1B",
"f.	c #7E7A7B",
"g.	c #858182",
"h.	c #88806F",
"i.	c #FFD800",
"j.	c #EFC705",
"k.	c #3E3A38",
"l.	c #857534",
"m.	c #D2B00D",
"n.	c #37353A",
"o.	c #524F50",
"p.	c #655C45",
"q.	c #F6CD02",
"r.	c #403C36",
"s.	c #3F3B3C",
"t.	c #2F2B2C",
"u.	c #373334",
"v.	c #777374",
"w.	c #8D898A",
"x.	c #565355",
"y.	c #9A8429",
"z.	c #C2A310",
"A.	c #35343E",
"B.	c #C7A81A",
"C.	c #867221",
"D.	c #403E40",
"E.	c #534F51",
"F.	c #7C6E3D",
"G.	c #C0A31B",
"H.	c #B69A15",
"I.	c #9B841D",
"J.	c #6A6667",
"K.	c #807C7D",
"L.	c #757172",
"M.	c #4E4B51",
"N.	c #D2B017",
"O.	c #847123",
"P.	c #434040",
"Q.	c #F8CD03",
"R.	c #574E31",
"S.	c #535053",
"T.	c #474449",
"U.	c #37353B",
"V.	c #373539",
"W.	c #444142",
"X.	c #433F40",
"Y.	c #332F30",
"Z.	c #413D3E",
"`.	c #3E3A3B",
" +	c #615D5E",
".+	c #55504E",
"++	c #464033",
"@+	c #756838",
"#+	c #EAC306",
"$+	c #35333B",
"%+	c #504D4E",
"&+	c #8B8788",
"*+	c #504C4E",
"=+	c #887837",
"-+	c #DAB50A",
";+	c #34333C",
">+	c #B09726",
",+	c #A58D19",
"'+	c #3D3A3D",
")+	c #767273",
"!+	c #514E53",
"~+	c #BC9F1E",
"{+	c #A1891B",
"]+	c #38373F",
"^+	c #EBC30A",
"/+	c #675B2D",
"(+	c #494646",
"_+	c #736F70",
":+	c #E8C10A",
"<+	c #FFDB00",
"[+	c #554C2E",
"}+	c #5E553B",
"|+	c #F8CE02",
"1+	c #3D3A38",
"2+	c #514E4F",
"3+	c #464243",
"4+	c #716642",
"5+	c #E5BF07",
"6+	c #3B383A",
"7+	c #927F2F",
"8+	c #C3A511",
"9+	c #39373C",
"0+	c #2D292A",
"a+	c #4D494C",
"b+	c #B69914",
"c+	c #37353E",
"d+	c #D4B315",
"e+	c #FFD200",
"f+	c #756626",
"g+	c #464344",
"h+	c #3F3C3E",
"i+	c #413E45",
"j+	c #8A878D",
"k+	c #555257",
"l+	c #38353B",
"m+	c #DAB60E",
"n+	c #7B6A28",
"o+	c #4B4740",
"p+	c #FBD001",
"q+	c #4B4432",
"r+	c #807344",
"s+	c #CDAB12",
"t+	c #D0B01B",
"u+	c #B59922",
"v+	c #838085",
"w+	c #635C51",
"x+	c #FCD203",
"y+	c #413D39",
"z+	c #857538",
"A+	c #E1BB08",
"B+	c #323139",
"C+	c #504C4C",
"D+	c #58534D",
"E+	c #59534C",
"F+	c #3D393A",
"G+	c #625E5F",
"H+	c #4F4C50",
"I+	c #BEA01D",
"J+	c #FED300",
"K+	c #A38D2D",
"L+	c #646062",
"M+	c #575355",
"N+	c #938134",
"O+	c #D1B010",
"P+	c #35343F",
"Q+	c #BA9E1E",
"R+	c #97811E",
"S+	c #3F3D3F",
"T+	c #565153",
"U+	c #887525",
"V+	c #ECC409",
"W+	c #C2A41E",
"X+	c #524F55",
"Y+	c #252122",
"Z+	c #918D8E",
"`+	c #504D53",
" @	c #F7CD03",
".@	c #5D5331",
"+@	c #CAAB1D",
"@@	c #958127",
"#@	c #434146",
"$@	c #F3CA07",
"%@	c #5C5231",
"&@	c #343138",
"*@	c #C0A00C",
"=@	c #968129",
"-@	c #4E4B4D",
";@	c #827E7F",
">@	c #74683E",
",@	c #F1C906",
"'@	c #312F36",
")@	c #5A5757",
"!@	c #524D49",
"~@	c #F4C904",
"{@	c #FFDD00",
"]@	c #3B3424",
"^@	c #6F643C",
"/@	c #F5CC03",
"(@	c #3C3A3D",
"_@	c #211D1E",
":@	c #403B38",
"<@	c #F8CD04",
"[@	c #FFDA00",
"}@	c #423C2F",
"|@	c #262223",
"1@	c #555154",
"2@	c #A9922F",
"3@	c #AD910F",
"4@	c #232125",
"5@	c #594B19",
"6@	c #D8B408",
"7@	c #353337",
"8@	c #998632",
"9@	c #C5A612",
"0@	c #302E32",
"a@	c #282425",
"b@	c #5C585A",
"c@	c #918140",
"d@	c #CDAA08",
"e@	c #29272B",
"f@	c #7C7879",
"g@	c #4B484F",
"h@	c #DFB908",
"i@	c #625215",
"j@	c #5B5859",
"k@	c #8A868B",
"l@	c #C2A62B",
"m@	c #AD9422",
"n@	c #54525A",
"o@	c #D9B922",
"p@	c #C8A708",
"q@	c #2F2D32",
"r@	c #8C8889",
"s@	c #837F81",
"t@	c #EAC413",
"u@	c #847538",
"v@	c #4F4B4D",
"w@	c #676364",
"x@	c #47423B",
"y@	c #F1C701",
"z@	c #998428",
"A@	c #7B7773",
"B@	c #736639",
"C@	c #FACE01",
"D@	c #6E6446",
"E@	c #625F66",
"F@	c #D9B618",
"G@	c #877B4F",
"H@	c #848082",
"I@	c #726A58",
"J@	c #D0AF16",
"K@	c #D2B013",
"L@	c #474549",
"M@	c #696566",
"N@	c #5F5B5C",
"O@	c #7A7056",
"P@	c #BC9F13",
"Q@	c #343339",
"R@	c #545156",
"S@	c #C0A21D",
"T@	c #E3BE14",
"U@	c #DBB60E",
"V@	c #FDD201",
"W@	c #494230",
"X@	c #747071",
"Y@	c #585457",
"Z@	c #EAC209",
"`@	c #DFBA09",
" #	c #3C3936",
".#	c #403D3E",
"+#	c #595557",
"@#	c #7A6B30",
"##	c #F0C804",
"$#	c #594F2F",
"%#	c #393738",
"&#	c #322E2F",
"*#	c #2B2728",
"=#	c #524F51",
"-#	c #806F31",
";#	c #FCD100",
">#	c #FBD101",
",#	c #BB9D13",
"'#	c #423D36",
")#	c #444147",
"!#	c #B69C26",
"~#	c #F8CE01",
"{#	c #F7CC02",
"]#	c #BFA013",
"^#	c #4E4735",
"/#	c #383537",
"(#	c #444041",
"_#	c #2E2A2B",
":#	c #514E51",
"<#	c #5A5135",
"[#	c #7D6C26",
"}#	c #8F7A1E",
"|#	c #796927",
"1#	c #544B30",
"2#	c #323135",
"3#	c #3C3939",
"4#	c #524F54",
"5#	c #4D452F",
"6#	c #746427",
"7#	c #897622",
"8#	c #8E7923",
"9#	c #776729",
"0#	c #4F4833",
"a#	c #323037",
"b#	c #797576",
"c#	c #878384",
"d#	c #848081",
"e#	c #413E3F",
"f#	c #3E3C3E",
"g#	c #3D3B3C",
"h#	c #4C494A",
"i#	c #4A4748",
"j#	c #454245",
"k#	c #3D3A3C",
"l#	c #3D3A3B",
"m#	c #454142",
"n#	c #4D4849",
"o#	c #5C5959",
". + @ # $ $ % & * = - ; % > , , , ' ' ' ' ' ) ! @ @ ~ @ ' @ { ' ",
"] ^ { / ( $ ' ' _ : % < [ } | 1 2 3 ' ' 4 5 6 7 8 9 0 a b ' { ' ",
"- c d e # ' f g h i j / k l m n o p ' , q r m n n n n s t u / _ ",
"v w $ f f % x y z A B f C D n E F G H I J n n E m n n n E K # - ",
"B ' ' ' g / { L % M ( / N O n J P Q R m n J S T U V n n n W X Y ",
"g g _ / - / - f y Z $ B ` m n  ...+.@.@.m #.$.%.&.*.=.n n -.;.>.",
"' @ ' $ ' $ & $ = f ,.'.).E n !.~.{.E n ].^.G % ; /.(.n n _.:.<.",
"@ g [.( }.$ |.. 1.z ] 2.3.n 4.5.6.7.n 7.8.G { & ' 9.0.n 4.a.b.[.",
"% ; c.d.e |.@ e.f f.g.h.i.n j.k.l.J n m.n.o./ @ ' p.m m q.r.+ s.",
"t.u._ v.% # ] ] w.x x.y.m E z.A.B.@.J C.D.' { _ E.F.G.H.I.n.g J.",
">.K.e * x * c.$ L.' M.N.n m O.P.Q.n @.R.L g { / & S.T.U.V.W._ { ",
"X.Y.Z.`.# : Z. +d @ .+7.n E ++@+m n #+$+' ' / $ & g { %+_ { g _ ",
"; J.; x Y.i &+j % *+=+m n -+;+>+E n ,+'+& $ $ / g @ @ ' ' @ g { ",
"w c % e { )+v.$ @ !+~+E n {+]+^+n s /+(+$ / _ ' @ @ ' ' ' g g 4 ",
"@ / % y }._+M B @ 9.:+n <+[+}+n n |+1+2+& { _ ' g g ' ' ' ' @ g ",
"= / & 3+. L.# M / 4+i.n 5+6+7+J @.8+9+/ / { g ' ' ' ' g / . / @ ",
"' @ / 0+i e B M a+W E E b+c+d+e+i.f+g+& & g @ ' ' ' @ @ { g @ g ",
"@ - h+i+j+k+- @ l+m+n J n+o+n n p+q++ { g g ' ' ' ' @ / ( ( / ' ",
"' @ r+s+t+u+v+w w+m n x+y+z+m n A+B+& f ( g C+D+D+E+E.[.F+e.G+{ ",
"@ H+I+J+m K+L+M+N+E n O+P+Q+n E R+S+T+{ B . U+V+^+W+X+{ Y+Z+< . ",
"g `+ @n n .@; C +@E E @@#@$@n J %@{ ; [.g &@*@n E =@-@3+`.;@@ ' ",
"' >@E n ,@'@)@!@~@n {@]@^@E n /@(@/ 3+_@c.:@<@n [@}@<.|@( < @ ' ",
"1@2@E n 3@4@g 5@4.n 6@7@8@m n 9@0@a@Y+B b@c@J @.d@e@: = f@;@f . ",
"g@h@n i.i@j@k@l@n E m@n@o@n n p@q@= < r@s@t@n i.u@v@w@M >. +& g ",
"x@y@n m z@A@B@C@n n D@E@F@n n J G@H@r@I@J@E n K@L@; M@|.[  +N@B ",
"O@i.n n m J J n E P@Q@R@S@E n n m T@U@n n n V@W@G G+X@<.% [.c + ",
"Y@Z@@.n n n n E `@ #.#+#@#J n n n n n n E ##$#%#* f . c.[ f &#*#",
"=#-#;#i.J i.>#,#'#$.{ L )#!#~#i.s J i.{#]#^#/#(#& L _#w v ; [ J.",
"' :#<#[#}#|#1#2#3#{ { & c 4#5#6#7#8#9#0#a#: 3+' { & v b#X@c#d#f.",
"' ' @ e#f#g#.#(+_ ' @ _ ; _#h#i#j#j#k#l#m#@ $ { f # & ' { { & ; ",
"' ' ' @ . n#_ ' ' ' { g <.' ,.M o#C+= & $ & / & ( ( g ' ' g { ' ",
"' ' ' ' ' ' ' ' ' ' / ' f  +/ & / & / & f $ ( $ ; & ' ' ' @ @ ' "};
